<svg viewBox="0 0 495 361" fill="none" xmlns="http://www.w3.org/2000/svg" class="logo_logo__53dN4 header_logoGraphic__V_jeL"><path d="M0 358.6c2.7-1 3.3-3.4 3.3-9.3v-36.8c0-5.9-.6-8.4-3.3-9.3v-1.1h39.5l1 11.6-1.1.2c-3.3-8-8.5-10.5-17.7-10.5H12v24.7h8c10 0 12.9-2 14.2-6.2h1.1v13.8h-1.1c-1.3-4.3-4.2-6.3-14.3-6.3H12v25q.1 3.9 4.1 4h8c8.3 0 14-2.4 17-10.8l1.2.1-.6 12H0z" fill="currentColor"></path><path d="m56.6 354.7-.3-12.3 1-.2c3.5 9.4 10.8 16.6 21.8 16.6 5.7 0 11-3.6 11-10.3 0-8.1-10.7-11.9-17.3-14.5-8.5-3.6-15.6-6.4-15.6-16 0-10.1 8.3-16.5 21.2-16.5q9.3.1 15.8 3.5l.3 10.7-.9.3a19.5 19.5 0 0 0-18.3-13c-6.6 0-11.8 3.8-11.8 10.3 0 7.3 8.3 10.3 14.9 13 8.4 3.1 18.4 6.8 18.4 16.7 0 11.3-10.4 17.6-19.9 17.6a36 36 0 0 1-20.3-5.9" fill="currentColor"></path><path d="m110.4 354.7-.4-12.3 1.1-.2c3.5 9.4 10.8 16.6 21.8 16.6 5.6 0 11-3.6 11-10.3 0-8.1-10.7-11.9-17.3-14.5-8.5-3.6-15.6-6.4-15.6-16 0-10.1 8.3-16.5 21.2-16.5q9.2.1 15.8 3.5l.3 10.7-.9.3a19.5 19.5 0 0 0-18.3-13c-6.6 0-11.8 3.8-11.8 10.3 0 7.3 8.3 10.3 14.9 13 8.4 3.1 18.4 6.8 18.4 16.7 0 11.3-10.4 17.6-19.9 17.6a36 36 0 0 1-20.3-5.9" fill="currentColor"></path><path d="M164.8 358.6c2.8-1 3.3-3.4 3.3-9.3v-36.8c0-5.9-.6-8.4-3.3-9.3v-1.1h39.6l.9 11.6-1 .2c-3.4-8-8.6-10.5-17.8-10.5h-9.6v24.7h7.9c10 0 12.9-2 14.2-6.2h1.2v13.8H199c-1.3-4.3-4.2-6.3-14.2-6.3h-8v25q0 3.9 4.2 4h7.9c8.3 0 14-2.4 17.1-10.8l1 .1-.5 12h-41.7zm10.9-61.1 9-9.8h.5l9.5 9.6-.7.7-9-3.8-8.7 3.8z" fill="currentColor"></path><path d="M226.9 311.6v32.7c0 10 2 13 6.2 14.3v1.1h-11v-1.1c2.7-1 3.3-3.4 3.3-9.3v-36.8c0-5.9-.8-8.4-4.3-9.3v-1.1h9.3l34.6 43.3v-27.9c0-10-2-13-6.3-14.3v-1.1H270v1.1c-2.8 1-3.3 3.4-3.3 9.4v47.8h-1.1z" fill="currentColor"></path><path d="M285.4 331.9c0-16.6 13.2-30.4 33.4-30.4 6 0 14.6 1.2 18.8 4l.4 11-1 .2a22 22 0 0 0-20.4-13.6c-13.1 0-22.4 8.7-22.4 25.1s9.4 30.6 25.4 30.6c9.2 0 15.6-5.6 18.5-14.1l1.1.1-1.3 11.8a48 48 0 0 1-20.7 4c-19.7 0-31.8-10.3-31.8-28.7" fill="currentColor"></path><path d="M355 358.6c2.7-1 3.2-3.4 3.2-9.3v-36.8c0-5.9-.5-8.4-3.2-9.3v-1.1h15.3v1.1c-2.7 1-3.3 3.4-3.3 9.3v36.8c0 6 .6 8.4 3.3 9.3v1.1h-15.4z" fill="currentColor"></path><path d="M380.7 358.6c2.4-1 4.6-3 6.9-8.6l15.4-38.2a5 5 0 0 0-.2-4.5l-1-2.3 8-3.6 20.4 48.7c2.3 5.4 4.5 7.6 6.4 8.5v1.1h-15v-1.1c2.7-1 1.5-3-.8-8.5l-4.9-11.9h-22l-4.8 11.8c-2.2 5.5-1.7 8 1.1 8.6v1.1h-9.6zm34.6-21.7-10.6-25.4-10.3 25.4z" fill="currentColor"></path><path d="m445.9 354.7-.3-12.3 1-.2c3.5 9.4 10.8 16.6 21.8 16.6 5.7 0 11-3.6 11-10.3 0-8.1-10.7-11.9-17.3-14.5-8.5-3.6-15.6-6.4-15.6-16 0-10.1 8.3-16.5 21.2-16.5q9.3.1 15.8 3.5l.4 10.7-1 .3a19.5 19.5 0 0 0-18.3-13c-6.6 0-11.8 3.8-11.8 10.3 0 7.3 8.3 10.3 14.9 13 8.4 3.1 18.4 6.8 18.4 16.7 0 11.3-10.4 17.6-19.9 17.6a36 36 0 0 1-20.3-5.9" fill="currentColor"></path><path d="M5.2 241.7q0-1 1-1.5c7-2.9 8.6-10.2 8.6-26.7V106.8c0-16.5-1.6-23.8-8.6-26.7q-1-.4-1-1.5v-.5q.2-1.6 1.7-1.7H48q1.6.2 1.7 1.7v.5q0 1.1-1 1.5c-7 3-8.6 10.2-8.6 26.7v106.7c0 16.5 1.6 23.8 8.6 26.7q1 .5 1 1.5v.6q-.1 1.5-1.7 1.6H7q-1.6-.1-1.7-1.6z" fill="currentColor"></path><path d="m70.3 228.5-1-33.6q.2-1.4 1.5-1.7h.3q1.3-.2 1.8 1c10.3 26.7 31.4 47.1 62.7 47.1 16.5 0 31.9-10.5 31.9-30.2 0-23.4-31-34.4-50-42-24.7-10.4-45.3-18.5-45.3-46.3 0-29.6 24-48 61.5-48 17.3 0 32.8 3.6 45 9.5q1 .5 1 1.5l.9 28.9q0 1.2-1.1 1.6-1.5.5-2.1-1a56 56 0 0 0-52.8-36.5c-19.1 0-34.2 11.3-34.2 30.2 0 21.3 24.2 29.9 43.3 37.5 24.4 9.4 53.4 20.1 53.4 48.9 0 32.7-30.2 51-57.7 51-24.2 0-46.1-7.7-58.4-16.6q-.7-.5-.7-1.3" fill="currentColor"></path><path d="M372.9 108c-1-1.3-3-.6-3 1v90.2c0 28.3 5.4 37 17 41q1.1.4 1.2 1.6v.5q-.2 1.5-1.7 1.6h-28.7q-1.6-.1-1.7-1.6v-.6q0-1 1-1.5c7-2.9 8.6-10.2 8.6-26.7V106.8c0-16.5-2-23.8-11.2-26.7q-1.1-.4-1.2-1.6v-.4q.1-1.6 1.6-1.7h24.6q.8 0 1.3.6l97 121.6c1 1.2 3 .5 3-1v-76.4c0-28.3-5.4-37-17-41q-1.1-.6-1.2-1.6V78q.2-1.6 1.7-1.7h29q1.5.2 1.6 1.7v.5q0 1.1-1 1.5c-7 3-8.6 10.2-8.6 26.7v137.4q-.1 1.5-1.6 1.6h-.7q-.8 0-1.3-.6z" fill="currentColor"></path><path d="M330 216 271.3 76a1.7 1.7 0 0 0-2.3-.8l-20.3 9.1q-1.4.8-.8 2.3l2.4 5.1c2.1 4.3 2.3 8.2.4 13l-44.7 111c-6.2 15.2-12.3 21.6-19 24.5q-1 .4-1.1 1.5v.6q.1 1.5 1.7 1.6H212q1.5-.1 1.6-1.6v-.5q0-1.1-1-1.5c-7.2-2.3-8.2-9.3-2-24.6l8.8-22 6.5-16 28.3-70.3a1.7 1.7 0 0 1 3.1 0l31 74 14.4 34.5c6.4 15.1 9.7 21.5 3.1 24.3q-1 .5-1 1.5v.6q.2 1.5 1.7 1.6h40.2q1.6-.1 1.7-1.6v-.7q0-1-.9-1.5c-5.2-2.8-11.2-9.2-17.6-24.2" fill="currentColor"></path><path d="M26.7 70.3a16 16 0 1 0 0-32.2 16 16 0 0 0 0 32.2" fill="currentColor"></path><path d="M304.7 50.6a64 64 0 0 1 22 47.4 50 50 0 0 1-13.9 35.6q-5.7 6.3-12.6 11.4l2.2 5.2q5.3-4 10.1-8.5a59 59 0 0 0 19.4-36.4c1-8.1-.2-16.4-2.3-24.2q-3.9-14.6-13.4-26.2c-14.9-18-37.2-29-58.8-36.8A340.8 340.8 0 0 0 91.2 4.7q-17.8 3-35 8.6-14.1 4.5-26.8 12.3c-6.2 4-12.3 9.1-15.9 15.7q-2.4 4.5-3 9.5c-.3 3.3-.1 7.6 2.4 10 3.6 3.4 9.2 3.4 12.6 7.1 2.4 2.6 6.2-1.2 3.9-3.8a19 19 0 0 0-7-4.5c-1.8-.8-4.2-1.4-5.6-2.6s-1-5.5-.6-7.2a27 27 0 0 1 10-15 82 82 0 0 1 22-12.7q15.4-6.2 31.8-9.7c26.1-5.7 53.2-7.6 80-6.7 27.5 1 55.1 5 81.6 13 22.4 6.6 45.5 16 63 32" fill="currentColor"></path><path d="m279 159-1.1.7c-13.6 8.1-27.6 15.7-40.6 25q-12.2 8.5-22.1 19.5l-4.7 11.5q-2.8 7.2-3.7 12a85 85 0 0 1 27-33.7c12.7-10 27-18 40.8-26l6.4-3.9z" fill="currentColor"></path></svg>