<svg xmlns:xlink="http://www.w3.org/1999/xlink" class="footer_socialIcon__Io8zu" viewBox="0 0 24 24" stroke="none" fill="currentColor" xmlns="http://www.w3.org/2000/svg"><path d="M12 3h4.4q1 0 2 .4a4 4 0 0 1 2.2 2.1q.3 1 .3 2a81 81 0 0 1-.3 11 4 4 0 0 1-2.1 2q-1 .4-2 .4a81 81 0 0 1-11-.3 4 4 0 0 1-2-2.1q-.5-1-.5-2a81 81 0 0 1 .4-11 4 4 0 0 1 2.1-2q1-.5 2-.5zm0-2H7.5Q6 1 4.8 1.7a6 6 0 0 0-3.2 3.2Q1 6.1 1 7.5L1 12v4.5q0 1.5.6 2.7a6 6 0 0 0 3.2 3.2q1.3.5 2.7.5l4.5.1h4.5q1.5 0 2.7-.6a6 6 0 0 0 3.2-3.2q.5-1.3.5-2.7L23 12V7.5q0-1.4-.6-2.7a6 6 0 0 0-3.2-3.2Q17.9 1 16.5 1zm0 14.7a4 4 0 0 1-3.4-2.3 3.7 3.7 0 1 1 3.4 2.3m5.9-8.2a1.3 1.3 0 1 0 0-2.7 1.3 1.3 0 0 0 0 2.7" fill="#FFFFFF" stroke-width="1.5"></path></svg>