<svg xmlns:xlink="http://www.w3.org/1999/xlink" class="footer_socialIcon__Io8zu" viewBox="0 0 24 24" stroke="none" fill="currentColor" xmlns="http://www.w3.org/2000/svg"><path d="M23 0H1Q0 0 0 1v22q0 1 1 1h22q1 0 1-1V1q0-1-1-1M7.1 20.5H3.6V9h3.6v11.5zM5.3 7.4c-1.1 0-2.1-.9-2.1-2.1 0-1.1.9-2.1 2.1-2.1 1.1 0 2.1.9 2.1 2.1a2 2 0 0 1-2.1 2.1m15.2 13.1h-3.6v-5.6c0-1.3 0-3-1.8-3S13 13.3 13 14.8v5.7H9.4V9h3.4v1.6c.5-.9 1.6-1.8 3.4-1.8 3.6 0 4.3 2.4 4.3 5.5z" fill="#FFFFFF" stroke-width="1.5"></path></svg>